<?xml version="1.0" standalone="no"?>
<!DOCTYPE svg PUBLIC "-//W3C//DTD SVG 20010904//EN"
 "http://www.w3.org/TR/2001/REC-SVG-20010904/DTD/svg10.dtd">
<svg version="1.0" xmlns="http://www.w3.org/2000/svg"
 width="368.000000pt" height="368.000000pt" viewBox="0 0 368.000000 368.000000"
 preserveAspectRatio="xMidYMid meet">
<metadata>
Created by potrace 1.11, written by Peter Selinger 2001-2013
</metadata>
<g transform="translate(0.000000,368.000000) scale(0.100000,-0.100000)"
fill="#000000" stroke="none">
<path d="M1800 3663 c-223 -26 -347 -49 -496 -91 -521 -151 -855 -444 -1125
-988 -45 -91 -80 -166 -78 -168 2 -2 299 -7 660 -11 l657 -7 40 124 c240 731
373 1140 370 1142 -2 1 -14 1 -28 -1z m-272 -465 c-54 -172 -123 -389 -153
-483 l-54 -170 -503 3 c-276 2 -504 5 -506 7 -2 2 19 45 48 95 242 423 614
702 1107 830 59 16 120 29 134 29 l26 1 -99 -312z"/>
<path d="M1850 3656 c0 -5 91 -290 202 -633 l202 -623 667 0 668 0 -25 62
c-43 103 -133 278 -191 368 -288 443 -689 707 -1218 800 -142 25 -305 39 -305
26z m327 -157 c500 -96 885 -387 1175 -886 l36 -61 -511 -4 c-282 -2 -514 -3
-515 -2 -4 3 -312 961 -312 969 0 8 13 6 127 -16z"/>
<path d="M67 2294 c-45 -190 -61 -326 -61 -509 0 -181 11 -271 50 -428 86
-342 302 -671 619 -940 l79 -68 19 66 19 67 -124 126 c-291 298 -439 572 -500
926 -28 166 -21 462 15 638 l24 117 -58 57 -57 56 -25 -108z"/>
<path d="M3060 2009 c-289 -209 -529 -385 -534 -389 -12 -12 394 -1260 410
-1260 18 0 262 246 337 340 218 274 338 536 388 855 18 113 16 397 -4 525 -19
121 -56 292 -66 302 -3 4 -242 -164 -531 -373z m467 74 c14 -120 9 -448 -10
-548 -48 -263 -149 -490 -318 -718 -85 -115 -196 -240 -202 -229 -19 30 -317
966 -310 972 17 18 818 590 825 590 3 0 10 -30 15 -67z"/>
<path d="M620 2138 c-139 -56 -142 -58 -132 -75 6 -9 17 -10 41 -3 39 11 64 1
83 -33 10 -17 14 -147 16 -559 l3 -538 82 -40 c196 -94 366 -73 515 64 117
109 168 265 144 442 -20 150 -88 256 -201 311 -118 59 -238 29 -342 -85 l-49
-54 0 311 c0 290 -1 311 -17 311 -10 -1 -74 -24 -143 -52z m458 -564 c94 -55
137 -155 136 -314 0 -162 -38 -256 -129 -326 -72 -55 -187 -42 -273 30 l-32
28 2 261 3 261 49 38 c85 63 161 70 244 22z"/>
<path d="M1302 733 c-423 -308 -530 -389 -520 -399 24 -23 213 -122 318 -167
596 -252 1139 -214 1727 121 46 26 83 50 83 54 0 8 -1057 778 -1067 778 -5 -1
-248 -175 -541 -387z m946 -87 c215 -159 394 -292 397 -297 8 -12 -155 -92
-273 -133 -307 -107 -632 -110 -983 -10 -142 40 -362 130 -357 145 7 18 804
596 813 590 6 -4 187 -137 403 -295z"/>
</g>
</svg>
